<?xml version="1.0" ?><!DOCTYPE svg  PUBLIC '-//W3C//DTD SVG 1.1//EN'  'http://www.w3.org/Graphics/SVG/1.1/DTD/svg11.dtd'>
<svg enable-background="new 0 0 32 32" height="32px" version="1.1" viewBox="9 9 14 14" width="32px" xml:space="preserve" xmlns="http://www.w3.org/2000/svg" xmlns:xlink="http://www.w3.org/1999/xlink">
  <g id="Layer_1"/><g id="Layer_2">
    <path d="M21.052,12.818c-1.238-1.228-2.92-1.878-4.868-1.88c0.125-0.551,0.342-1.081,0.657-1.554   c0.215-0.323-0.305-0.623-0.518-0.303c-0.367,0.551-0.612,1.178-0.746,1.829c-0.459-0.764-1.352-1.563-3.1-1.563   c-0.191,0-0.394,0.01-0.608,0.03l-0.264,0.026l-0.007,0.265c-0.002,0.052-0.016,1.227,0.748,2.111   c-0.086,0.046-0.175,0.087-0.259,0.137c-1.049,0.629-1.788,1.51-2.136,2.547c-0.171,0.509-0.265,1.112-0.265,1.699   c0,1.788,1.045,4.36,2.236,5.504c0.621,0.598,1.319,1.174,2.21,1.342c0.179,0.033,0.337,0.049,0.486,0.049   c0.527,0,0.834-0.207,1.039-0.346c0.144-0.097,0.197-0.133,0.342-0.133c0.166,0,0.282,0.065,0.462,0.168   c0.342,0.193,0.869,0.425,1.57,0.208c0.571-0.177,1.121-0.497,1.732-1.008c1.357-1.135,2.549-3.838,2.549-5.784   C22.313,14.833,21.854,13.614,21.052,12.818z M12.214,9.953c2.446-0.117,3.055,1.456,3.197,2.102   c-1.133,0.178-1.991-0.018-2.536-0.575C12.395,10.989,12.254,10.321,12.214,9.953z M19.38,21.485   c-0.548,0.459-1.033,0.743-1.525,0.896c-0.485,0.148-0.795,0.014-1.102-0.16c-0.211-0.12-0.428-0.243-0.753-0.243   c-0.328,0-0.505,0.119-0.681,0.237c-0.235,0.158-0.533,0.303-1.076,0.202c-0.735-0.139-1.35-0.65-1.904-1.185   c-1.055-1.013-2.053-3.478-2.053-5.071c0-0.524,0.083-1.06,0.233-1.508c0.303-0.9,0.951-1.669,1.876-2.224   c0.137-0.082,0.279-0.155,0.423-0.225c0.487,0.338,1.095,0.514,1.824,0.514c0.269,0,0.561-0.031,0.863-0.079   c0.024,0.194,0.059,0.386,0.104,0.576c-0.599-0.042-1.186-0.156-1.676-0.39c-0.347-0.166-0.652,0.351-0.303,0.518   c1.403,0.671,3.336,0.671,4.739,0c0.349-0.167,0.044-0.684-0.303-0.518c-0.533,0.255-1.179,0.378-1.832,0.406   c-0.152-0.553-0.199-1.127-0.145-1.693c0.026,0,0.057-0.002,0.082-0.002c1.792,0,3.333,0.589,4.459,1.707   c0.688,0.684,1.084,1.748,1.084,2.918C21.714,17.959,20.623,20.447,19.38,21.485z"/><path d="M11.44,14.098c-0.672,1.19-0.621,2.709-0.176,3.976c0.127,0.362,0.707,0.207,0.579-0.159   c-0.392-1.115-0.479-2.461,0.115-3.514C12.149,14.063,11.63,13.761,11.44,14.098z"/>
    <path d="M12.09,13.222c-0.387,0-0.387,0.6,0,0.6C12.477,13.822,12.477,13.222,12.09,13.222z"/>
  </g>
</svg>