<?xml version="1.0" standalone="no"?>
<!DOCTYPE svg PUBLIC "-//W3C//DTD SVG 20010904//EN"
 "http://www.w3.org/TR/2001/REC-SVG-20010904/DTD/svg10.dtd">
<svg version="1.0" xmlns="http://www.w3.org/2000/svg"
 width="746.000000pt" height="613.000000pt" viewBox="0 0 746.000000 613.000000"
 preserveAspectRatio="xMidYMid meet">

<g transform="translate(0.000000,613.000000) scale(0.100000,-0.100000)"
fill="#000000" stroke="none">
<path d="M1960 6096 c-277 -51 -495 -247 -580 -521 -16 -52 -25 -125 -35 -283
-23 -332 -72 -534 -190 -777 -162 -332 -394 -583 -732 -792 -152 -94 -253
-196 -316 -323 -26 -52 -55 -124 -64 -160 -24 -88 -23 -281 1 -370 26 -96 88
-216 156 -297 51 -62 88 -91 234 -187 183 -120 279 -197 384 -306 221 -227
391 -529 465 -825 40 -158 47 -208 57 -400 14 -250 42 -345 146 -491 94 -132
238 -234 404 -285 61 -19 98 -23 195 -23 156 0 215 16 387 104 357 182 588
242 938 243 332 1 558 -56 907 -232 168 -84 250 -106 388 -105 121 2 213 23
320 74 198 96 358 295 401 500 21 100 14 299 -14 385 -76 237 -254 420 -474
488 -125 39 -219 50 -322 37 -106 -13 -184 -41 -386 -135 -185 -87 -303 -127
-465 -160 -428 -86 -833 -32 -1223 164 -680 341 -1088 1086 -1011 1842 67 669
482 1248 1087 1519 371 166 752 209 1143 130 151 -31 334 -94 464 -161 66 -34
149 -77 185 -95 85 -44 165 -64 276 -71 215 -13 405 60 565 217 87 86 146 179
185 295 39 114 45 286 15 405 -76 302 -308 524 -600 576 -191 34 -324 7 -564
-115 -289 -147 -553 -211 -874 -211 -317 0 -564 64 -893 231 -96 49 -202 96
-235 104 -85 22 -235 27 -325 11z"/>
<path d="M5915 4680 c-65 -10 -103 -36 -310 -215 -223 -193 -248 -225 -248
-327 0 -82 24 -120 218 -344 192 -222 223 -246 326 -245 80 0 114 20 281 164
212 182 269 238 289 282 24 52 24 138 0 191 -16 36 -314 392 -366 437 -54 47
-121 67 -190 57z"/>
<path d="M6771 3583 c-44 -25 -355 -286 -419 -353 -67 -71 -86 -184 -44 -266
11 -22 98 -129 194 -239 197 -226 224 -248 322 -249 87 -1 123 21 351 219 230
200 251 229 243 340 -4 39 -13 76 -26 97 -12 19 -99 123 -194 233 -194 222
-222 244 -319 245 -43 0 -69 -7 -108 -27z"/>
<path d="M5705 2656 c-87 -45 -435 -358 -467 -420 -30 -57 -30 -147 0 -203 26
-50 337 -411 385 -447 62 -47 154 -58 223 -27 42 19 382 308 446 379 61 68 75
175 32 256 -10 19 -97 126 -193 236 -191 221 -215 240 -316 247 -50 4 -68 0
-110 -21z"/>
</g>
</svg>
