<?xml version="1.0" standalone="no"?>
<!DOCTYPE svg PUBLIC "-//W3C//DTD SVG 20010904//EN"
 "http://www.w3.org/TR/2001/REC-SVG-20010904/DTD/svg10.dtd">
<svg version="1.0" xmlns="http://www.w3.org/2000/svg"
 width="104.000000pt" height="141.000000pt" viewBox="0 0 104.000000 141.000000"
 preserveAspectRatio="xMidYMid meet">

<g transform="translate(0.000000,141.000000) scale(0.100000,-0.100000)"
fill="#000000" stroke="none">
<path d="M454 1354 c-12 -3 -39 -20 -61 -39 -38 -32 -41 -33 -81 -22 -37 10
-47 8 -87 -11 -55 -27 -90 -87 -82 -139 5 -30 2 -38 -30 -66 -42 -37 -63 -82
-63 -134 0 -42 28 -111 53 -132 10 -7 17 -27 17 -43 0 -97 105 -173 190 -138
30 12 33 11 74 -29 50 -49 66 -99 66 -209 0 -64 -19 -168 -46 -254 -4 -15 -18
-18 -79 -18 -90 0 -105 -5 -105 -36 l0 -24 375 0 c326 0 376 2 381 15 4 8 1
22 -6 30 -10 12 -42 15 -165 15 l-152 0 -28 91 c-32 106 -46 216 -36 298 5 43
15 67 39 98 47 57 69 67 120 54 50 -14 97 2 130 44 23 29 29 88 13 114 -7 11
0 26 24 53 70 83 62 183 -20 256 -35 31 -45 46 -45 70 0 70 -101 137 -170 114
-28 -10 -36 -9 -67 15 -34 26 -106 38 -159 27z m-10 -635 c15 -7 26 -23 30
-41 15 -77 2 -85 -57 -37 -41 33 -45 49 -21 73 18 19 17 19 48 5z m221 2 c5
-10 -99 -101 -115 -101 -5 0 -11 9 -14 20 -3 11 -9 29 -12 40 -5 17 0 20 28
21 25 0 87 17 105 28 1 0 4 -3 8 -8z"/>
<path d="M790 576 c0 -35 4 -46 16 -46 12 0 14 9 12 42 -4 59 -28 63 -28 4z"/>
<path d="M724 596 c-8 -22 -1 -59 13 -64 17 -5 27 22 19 53 -7 28 -24 33 -32
11z"/>
<path d="M846 603 c-3 -3 -6 -21 -6 -40 0 -23 5 -33 15 -33 10 0 15 10 15 34
0 34 -11 52 -24 39z"/>
<path d="M730 486 c0 -16 26 -46 41 -46 14 0 11 27 -7 44 -19 20 -34 20 -34 2z"/>
<path d="M806 478 c-9 -12 -16 -30 -16 -38 0 -12 -8 -15 -34 -12 -27 3 -37 -1
-56 -25 -18 -23 -21 -36 -16 -78 3 -27 14 -61 24 -75 17 -22 27 -25 95 -28 76
-3 76 -3 92 28 9 17 19 52 22 78 7 63 -21 102 -74 102 -35 0 -35 0 -19 25 29
44 12 66 -18 23z m-42 -197 c6 -9 5 -12 -5 -9 -18 6 -34 70 -24 94 7 15 10 9
14 -26 4 -25 10 -51 15 -59z"/>
</g>
</svg>
