<?xml version="1.0" ?><!DOCTYPE svg  PUBLIC '-//W3C//DTD SVG 1.1//EN'  'http://www.w3.org/Graphics/SVG/1.1/DTD/svg11.dtd'><svg height="512px" id="Layer_1" style="enable-background:new 0 0 512 512;" version="1.1" viewBox="0 0 512 512" width="512px" xml:space="preserve" xmlns="http://www.w3.org/2000/svg" xmlns:xlink="http://www.w3.org/1999/xlink"><g id="PL_x5F_Film"><rect height="34.9" width="32" x="64" y="64"/><path d="M384,64H128v177.3h256V64L384,64z"/><path d="M384,270.4H128V448h256V270.4L384,270.4z"/><rect height="34.9" width="32" x="64" y="133.8"/><rect height="34.9" width="32" x="64" y="203.6"/><rect height="34.9" width="32" x="64" y="273.5"/><rect height="34.9" width="32" x="64" y="343.3"/><rect height="34.9" width="32" x="64" y="413.1"/><rect height="34.9" width="32" x="416" y="64"/><rect height="34.9" width="32" x="416" y="133.8"/><rect height="34.9" width="32" x="416" y="203.6"/><rect height="34.9" width="32" x="416" y="273.5"/><rect height="34.9" width="32" x="416" y="343.3"/><rect height="34.9" width="32" x="416" y="413.1"/></g></svg>