<?xml version="1.0" ?><!DOCTYPE svg  PUBLIC '-//W3C//DTD SVG 1.1//EN'  'http://www.w3.org/Graphics/SVG/1.1/DTD/svg11.dtd'><svg height="512px" id="Layer_1" style="enable-background:new 0 0 512 512;" version="1.1" viewBox="0 0 512 512" width="512px" xml:space="preserve" xmlns="http://www.w3.org/2000/svg" xmlns:xlink="http://www.w3.org/1999/xlink"><path d="M368.5,128h-225L80,224v160h176h176V224L368.5,128z M413.4,224H368v-68L413.4,224z M160,144h192v80h-48  c0,26.5-21.5,48-48,48s-48-21.5-48-48h-48V144z M144,156v68H98.6L144,156z M416,368H256H96V240h98c7.1,27.6,32.2,48,62,48  s54.9-20.4,62-48h98V368z"/></svg>