<?xml version="1.0" ?><svg height="16px" version="1.1" viewBox="0 0 20 16" width="20px" xmlns="http://www.w3.org/2000/svg" xmlns:sketch="http://www.bohemiancoding.com/sketch/ns" xmlns:xlink="http://www.w3.org/1999/xlink"><title/><desc/><defs/><g fill="none" fill-rule="evenodd" id="Page-1" stroke="none" stroke-width="1"><g fill="#000000" id="Core" transform="translate(-128.000000, -256.000000)"><g id="folder-shared" transform="translate(128.000000, 256.000000)"><path d="M18,2 L10,2 L8,0 L2,0 C0.9,0 0,0.9 0,2 L0,14 C0,15.1 0.9,16 2,16 L18,16 C19.1,16 20,15.1 20,14 L20,4 C20,2.9 19.1,2 18,2 L18,2 Z M13,5 C14.1,5 15,5.9 15,7 C15,8.1 14.1,9 13,9 C11.9,9 11,8.1 11,7 C11,5.9 11.9,5 13,5 L13,5 Z M17,13 L9,13 L9,12 C9,10.7 11.7,10 13,10 C14.3,10 17,10.7 17,12 L17,13 L17,13 Z" id="Shape"/></g></g></g></svg>