<?xml version="1.0" ?><svg height="18px" version="1.1" viewBox="0 0 18 18" width="18px" xmlns="http://www.w3.org/2000/svg" xmlns:sketch="http://www.bohemiancoding.com/sketch/ns" xmlns:xlink="http://www.w3.org/1999/xlink"><title/><desc/><defs/><g fill="none" fill-rule="evenodd" id="Page-1" stroke="none" stroke-width="1"><g fill="#000000" id="Core" transform="translate(-255.000000, -171.000000)"><g id="drive-ms-powerpoint" transform="translate(255.000000, 171.000000)"><path d="M16,0 L2,0 C0.9,0 0,0.9 0,2 L0,16 C0,17.1 0.9,18 2,18 L16,18 C17.1,18 18,17.1 18,16 L18,2 C18,0.9 17.1,0 16,0 L16,0 Z M6.8,10.4 L6.8,14 L5,14 L5,4 L9.3,4 C10.8,4 11.5,4.3 12.1,4.9 C12.8,5.5 13,6.3 13,7.2 C13,8.2 12.7,9 12.1,9.5 C11.5,10 10.8,10.3 9.3,10.3 L6.8,10.3 L6.8,10.4 Z" id="Shape"/><path d="M6.8,9 L6.8,5.4 L9.1,5.4 C9.8,5.4 10.3,5.6 10.6,6 C10.9,6.4 11.1,6.7 11.1,7.2 C11.1,7.8 10.9,8.1 10.6,8.5 C10.3,8.8 9.9,9 9.2,9 L6.8,9 L6.8,9 Z" id="Shape"/></g></g></g></svg>