<?xml version="1.0" ?><svg height="18px" version="1.1" viewBox="0 0 18 18" width="18px" xmlns="http://www.w3.org/2000/svg" xmlns:sketch="http://www.bohemiancoding.com/sketch/ns" xmlns:xlink="http://www.w3.org/1999/xlink"><title/><desc/><defs/><g fill="none" fill-rule="evenodd" id="Page-1" stroke="none" stroke-width="1"><g fill="#000000" id="Core" transform="translate(-129.000000, -297.000000)"><g id="invert-colors" transform="translate(129.000000, 297.000000)"><path d="M14,9 C14,6.2 11.8,4 9,4 L9,14 C11.8,14 14,11.8 14,9 L14,9 Z M16,0 L2,0 C0.9,0 0,0.9 0,2 L0,16 C0,17.1 0.9,18 2,18 L16,18 C17.1,18 18,17.1 18,16 L18,2 C18,0.9 17.1,0 16,0 L16,0 Z M16,16 L9,16 L9,14 C6.2,14 4,11.8 4,9 C4,6.2 6.2,4 9,4 L9,2 L16,2 L16,16 L16,16 Z" id="Shape"/></g></g></g></svg>