<?xml version="1.0" ?><svg height="18px" version="1.1" viewBox="0 0 18 18" width="18px" xmlns="http://www.w3.org/2000/svg" xmlns:sketch="http://www.bohemiancoding.com/sketch/ns" xmlns:xlink="http://www.w3.org/1999/xlink"><title/><desc/><defs/><g fill="none" fill-rule="evenodd" id="Page-1" stroke="none" stroke-width="1"><g fill="#000000" id="Core" transform="translate(-3.000000, -171.000000)"><g id="drive-drawing" transform="translate(3.000000, 171.000000)"><path d="M16,0 L2,0 C0.9,0 0,0.9 0,2 L0,16 C0,17.1 0.9,18 2,18 L16,18 C17.1,18 18,17.1 18,16 L18,2 C18,0.9 17.1,0 16,0 L16,0 Z M15,15 L9,15 L9,9.2 C8.3,9.8 7.5,10.2 6.5,10.2 C4.5,10.2 2.8,8.5 2.8,6.5 C2.8,4.5 4.5,2.8 6.5,2.8 C8.5,2.8 10.2,4.5 10.2,6.5 C10.2,7.5 9.8,8.3 9.2,9 L15,9 L15,15 L15,15 Z" id="Shape"/></g></g></g></svg>