<?xml version="1.0" ?><svg height="22px" version="1.1" viewBox="0 0 16 22" width="16px" xmlns="http://www.w3.org/2000/svg" xmlns:sketch="http://www.bohemiancoding.com/sketch/ns" xmlns:xlink="http://www.w3.org/1999/xlink"><title/><desc/><defs/><g fill="none" fill-rule="evenodd" id="Page-1" stroke="none" stroke-width="1"><g fill="#000000" id="Core" transform="translate(-88.000000, -421.000000)"><g id="settings-power" transform="translate(88.000000, 421.000000)"><path d="M3,22 L5,22 L5,20 L3,20 L3,22 L3,22 Z M7,22 L9,22 L9,20 L7,20 L7,22 L7,22 Z M9,0 L7,0 L7,10 L9,10 L9,0 L9,0 Z M12.6,2.4 L11.2,3.8 C12.8,4.9 14,6.8 14,9 C14,12.3 11.3,15 8,15 C4.7,15 2,12.3 2,9 C2,6.8 3.2,4.9 4.9,3.9 L3.4,2.4 C1.4,3.9 0,6.3 0,9 C0,13.4 3.6,17 8,17 C12.4,17 16,13.4 16,9 C16,6.3 14.6,3.9 12.6,2.4 L12.6,2.4 Z M11,22 L13,22 L13,20 L11,20 L11,22 L11,22 Z" id="Shape"/></g></g></g></svg>