<?xml version="1.0" ?><svg height="18px" version="1.1" viewBox="0 0 18 18" width="18px" xmlns="http://www.w3.org/2000/svg" xmlns:sketch="http://www.bohemiancoding.com/sketch/ns" xmlns:xlink="http://www.w3.org/1999/xlink"><title/><desc/><defs/><g fill="none" fill-rule="evenodd" id="Page-1" stroke="none" stroke-width="1"><g fill="#000000" id="Core" transform="translate(-297.000000, -171.000000)"><g id="drive-ms-word" transform="translate(297.000000, 171.000000)"><path d="M16,0 L2,0 C0.9,0 0,0.9 0,2 L0,16 C0,17.1 0.9,18 2,18 L16,18 C17.1,18 18,17.1 18,16 L18,2 C18,0.9 17.1,0 16,0 L16,0 Z M12.5,14 L11,14 L9,6.5 L7,14 L5.5,14 L3.1,4 L4.8,4 L6.3,11.5 L8.3,4 L9.7,4 L11.7,11.5 L13.2,4 L14.9,4 L12.5,14 L12.5,14 Z" id="Shape"/></g></g></g></svg>