<?xml version="1.0" ?><svg height="18px" version="1.1" viewBox="0 0 18 18" width="18px" xmlns="http://www.w3.org/2000/svg" xmlns:sketch="http://www.bohemiancoding.com/sketch/ns" xmlns:xlink="http://www.w3.org/1999/xlink"><title/><desc/><defs/><g fill="none" fill-rule="evenodd" id="Page-1" stroke="none" stroke-width="1"><g fill="#000000" id="Core" transform="translate(-3.000000, -297.000000)"><g id="inbox" transform="translate(3.000000, 297.000000)"><path d="M16,0 L2,0 C0.9,0 0,0.9 0,2 L0,16 C0,17.1 0.9,18 2,18 L16,18 C17.1,18 18,17.1 18,16 L18,2 C18,0.9 17.1,0 16,0 L16,0 Z M16,12 L12,12 C12,13.7 10.7,15 9,15 C7.3,15 6,13.7 6,12 L2,12 L2,2 L16,2 L16,12 L16,12 Z M13,7 L11,7 L11,4 L7,4 L7,7 L5,7 L9,11 L13,7 L13,7 Z" id="Shape"/></g></g></g></svg>